<?xml version="1.0" standalone="no"?>
<!DOCTYPE svg PUBLIC "-//W3C//DTD SVG 20010904//EN"
 "http://www.w3.org/TR/2001/REC-SVG-20010904/DTD/svg10.dtd">
<svg version="1.0" xmlns="http://www.w3.org/2000/svg"
 width="302.000000pt" height="82.000000pt" viewBox="0 0 302.000000 82.000000"
 preserveAspectRatio="xMidYMid meet">
<metadata>
Created by potrace 1.16, written by Peter Selinger 2001-2019
</metadata>
<g transform="translate(0.000000,82.000000) scale(0.100000,-0.100000)"
fill="#000000" stroke="none">
<path d="M125 798 c-32 -17 -76 -61 -91 -90 -18 -35 -18 -131 0 -166 33 -64
99 -104 196 -122 132 -24 175 -69 190 -201 7 -61 16 -92 35 -121 68 -103 250
-103 320 0 22 32 25 48 25 118 0 67 -4 86 -21 108 -32 40 -96 72 -183 91 -62
14 -87 25 -117 52 -37 33 -69 102 -69 149 0 64 -53 149 -112 180 -32 17 -144
18 -173 2z"/>
<path d="M565 798 c-64 -35 -97 -90 -97 -160 1 -126 132 -204 249 -147 66 32
83 63 83 152 0 67 -3 79 -26 107 -15 17 -39 37 -55 45 -33 17 -125 19 -154 3z"/>
<path d="M2048 633 c-13 -3 -18 -15 -18 -44 0 -35 -3 -39 -25 -39 -21 0 -25
-5 -25 -30 0 -25 4 -30 25 -30 l25 0 0 -108 c0 -123 9 -146 64 -156 56 -11 86
1 86 34 0 25 -4 29 -32 32 l-33 3 -3 98 -3 97 41 0 c38 0 40 2 40 30 0 28 -2
30 -40 30 l-40 0 0 45 c0 47 -8 52 -62 38z"/>
<path d="M2878 633 c-13 -3 -18 -15 -18 -44 0 -35 -3 -39 -25 -39 -21 0 -25
-5 -25 -30 0 -25 4 -30 25 -30 l25 0 0 -108 c0 -123 9 -146 64 -156 56 -11 86
1 86 34 0 25 -4 29 -32 32 l-33 3 -3 98 -3 97 41 0 c38 0 40 2 40 30 0 28 -2
30 -40 30 l-40 0 0 45 c0 47 -8 52 -62 38z"/>
<path d="M1067 546 c-50 -19 -67 -34 -88 -81 -37 -80 -12 -181 53 -220 35 -20
119 -26 171 -12 24 6 26 11 21 35 -9 37 -9 37 -50 24 -66 -20 -134 30 -134 98
0 63 72 120 125 100 15 -6 32 -10 39 -10 15 0 29 51 18 62 -15 15 -117 18
-155 4z"/>
<path d="M1345 540 c-52 -25 -76 -67 -82 -138 -9 -107 56 -182 157 -182 57 0
108 26 137 69 18 27 23 48 23 101 0 53 -5 74 -23 101 -44 67 -135 88 -212 49z
m122 -64 c25 -22 28 -31 28 -86 0 -55 -3 -64 -28 -86 -36 -31 -58 -30 -90 2
-47 47 -44 144 6 179 30 21 52 19 84 -9z"/>
<path d="M1766 553 c-4 -4 -34 -6 -66 -5 l-60 3 0 -161 0 -160 39 0 39 0 4
109 c2 88 6 113 21 129 26 29 54 33 80 12 20 -17 22 -28 25 -134 l4 -116 39 0
39 0 0 115 c0 133 -13 175 -59 199 -31 16 -92 21 -105 9z"/>
<path d="M2293 544 c-102 -50 -109 -248 -11 -300 35 -19 129 -25 181 -11 25 7
28 11 22 35 -4 15 -8 28 -10 30 -1 2 -23 -2 -49 -9 -67 -17 -114 4 -130 58 -7
22 -5 22 101 25 l108 3 -3 48 c-1 27 -10 62 -19 78 -33 55 -123 76 -190 43z"/>
<path d="M2610 542 c-27 -13 -37 -26 -45 -55 -12 -51 7 -86 63 -112 54 -27 74
-47 66 -68 -9 -24 -38 -30 -84 -16 -46 14 -46 14 -55 -23 -6 -24 -4 -27 32
-37 111 -31 204 20 190 105 -8 47 -17 57 -82 88 -56 26 -67 44 -40 66 12 10
24 11 53 2 41 -13 50 -8 54 27 2 19 -3 26 -22 32 -44 13 -94 9 -130 -9z"/>
<path d="M100 338 c-56 -38 -80 -82 -80 -148 0 -96 58 -160 153 -168 65 -5
123 21 159 70 32 45 33 153 2 194 -37 51 -70 68 -137 72 -53 3 -67 0 -97 -20z"/>
</g>
</svg>
